<svg fill="none" xmlns="http://www.w3.org/2000/svg" viewBox="0 0 20 20"><g clip-path="url(#a)" fill="#AFB1B8"><path d="M19.995 20H20v-7.336c0-3.588-.772-6.352-4.968-6.352-2.016 0-3.37 1.106-3.922 2.155h-.058v-1.82H7.074v13.352h4.142v-6.612c0-1.74.33-3.424 2.486-3.424 2.124 0 2.156 1.987 2.156 3.536V20h4.137ZM.33 6.648h4.147V20H.33V6.648ZM2.402 0A2.402 2.402 0 0 0 0 2.402c0 1.325 1.076 2.424 2.402 2.424 1.325 0 2.401-1.098 2.401-2.424A2.403 2.403 0 0 0 2.402 0Z"/></g><defs><clipPath id="a"><path fill="#fff" d="M0 0h20v20H0z"/></clipPath></defs></svg>