<svg fill="none" xmlns="http://www.w3.org/2000/svg" viewBox="0 0 20 18"><path d="M20 2.799a8.551 8.551 0 0 1-2.362.647A4.077 4.077 0 0 0 19.44 1.18a8.193 8.193 0 0 1-2.6.992 4.099 4.099 0 0 0-7.093 2.804c0 .325.028.638.096.935-3.409-.166-6.425-1.8-8.452-4.288a4.128 4.128 0 0 0-.56 2.072c0 1.42.73 2.679 1.82 3.408A4.05 4.05 0 0 1 .8 6.598v.045a4.119 4.119 0 0 0 3.285 4.028 4.09 4.09 0 0 1-1.075.135c-.263 0-.527-.015-.776-.07.531 1.624 2.038 2.818 3.831 2.856a8.239 8.239 0 0 1-5.084 1.75c-.336 0-.659-.016-.981-.057a11.544 11.544 0 0 0 6.29 1.84c7.545 0 11.67-6.25 11.67-11.668 0-.18-.006-.356-.015-.53A8.18 8.18 0 0 0 20 2.8Z" fill="#AFB1B8"/></svg>